<?xml version="1.0" encoding="UTF-8"?>
<svg width="375px" height="236px" viewBox="0 0 375 236" version="1.1" xmlns="http://www.w3.org/2000/svg" xmlns:xlink="http://www.w3.org/1999/xlink">
    <!-- Generator: Sketch 48.2 (47327) - http://www.bohemiancoding.com/sketch -->
    <title>detail-bg</title>
    <desc>Created with Sketch.</desc>
    <defs>
        <rect id="path-1" x="0" y="0" width="375" height="236"></rect>
        <rect id="path-3" x="0" y="0" width="375" height="236"></rect>
        <path d="M141.5,49 L353.5,49 C359.851275,49 365,54.1487254 365,60.5 L365,272.5 C365,278.851275 359.851275,284 353.5,284 L323.41781,284 L130,90.5740267 L130,60.5 C130,54.1487254 135.148725,49 141.5,49 Z" id="path-5"></path>
        <filter x="-13.2%" y="-12.3%" width="126.4%" height="126.4%" filterUnits="objectBoundingBox" id="filter-6">
            <feOffset dx="0" dy="2" in="SourceAlpha" result="shadowOffsetOuter1"></feOffset>
            <feGaussianBlur stdDeviation="10" in="shadowOffsetOuter1" result="shadowBlurOuter1"></feGaussianBlur>
            <feColorMatrix values="0 0 0 0 0   0 0 0 0 0   0 0 0 0 0  0 0 0 0.2 0" type="matrix" in="shadowBlurOuter1"></feColorMatrix>
        </filter>
        <path d="M64.9532783,128.89149 L152.643719,41.2010491 L213.250211,41.2058817 C219.599598,41.2058817 224.747542,46.3516628 224.75021,52.7010501 L224.854233,288.792445 L64.9532783,128.89149 Z" id="path-7"></path>
        <filter x="-11.9%" y="-6.9%" width="123.8%" height="115.3%" filterUnits="objectBoundingBox" id="filter-8">
            <feOffset dx="0" dy="2" in="SourceAlpha" result="shadowOffsetOuter1"></feOffset>
            <feGaussianBlur stdDeviation="6" in="shadowOffsetOuter1" result="shadowBlurOuter1"></feGaussianBlur>
            <feColorMatrix values="0 0 0 0 0   0 0 0 0 0   0 0 0 0 0  0 0 0 0.2 0" type="matrix" in="shadowBlurOuter1"></feColorMatrix>
        </filter>
    </defs>
    <g id="detail" stroke="none" stroke-width="1" fill="none" fill-rule="evenodd">
        <g id="detail-bg">
            <mask id="mask-2" fill="white">
                <use xlink:href="#path-1"></use>
            </mask>
            <g id="Rectangle-3">
                <use fill="#D8D8D8" fill-rule="evenodd" xlink:href="#path-1"></use>
                <rect stroke="#979797" stroke-width="1" x="0.5" y="0.5" width="374" height="235"></rect>
            </g>
            <g id="bg-n" mask="url(#mask-2)">
                <mask id="mask-4" fill="white">
                    <use xlink:href="#path-3"></use>
                </mask>
                <use id="Rectangle" fill="#4A90E2" fill-rule="evenodd" xlink:href="#path-3"></use>
            </g>
            <g id="Group-12" opacity="0.10716712" mask="url(#mask-2)">
                <g transform="translate(-63.000000, 40.000000)">
                    <g id="Rectangle-24-Copy-2" fill="none" opacity="0.218353714" transform="translate(247.500000, 166.500000) rotate(-45.000000) translate(-247.500000, -166.500000) ">
                        <use fill="black" fill-opacity="1" filter="url(#filter-6)" xlink:href="#path-5"></use>
                        <use fill="#000000" fill-rule="evenodd" xlink:href="#path-5"></use>
                    </g>
                    <g id="Rectangle-24-Copy" fill="none" opacity="0.348901721" transform="translate(144.903756, 164.996747) rotate(-45.000000) translate(-144.903756, -164.996747) ">
                        <use fill="black" fill-opacity="1" filter="url(#filter-8)" xlink:href="#path-7"></use>
                        <use fill="#000000" fill-rule="evenodd" xlink:href="#path-7"></use>
                    </g>
                    <path d="M270.77596,112.735676 L426.479487,112.496674 C440.286589,112.475481 451.496638,123.651168 451.517832,137.45827 C451.517851,137.471062 451.517861,137.483853 451.517861,137.496645 L451.517861,196.901482 L403.229813,245.189529 L270.77596,112.735676 Z" id="Rectangle-24-Copy-3" fill="#000000" fill-rule="evenodd" opacity="0.305876359" transform="translate(361.146910, 178.843087) rotate(-45.000000) translate(-361.146910, -178.843087) "></path>
                </g>
            </g>
            <rect id="Rectangle" fill="#FFFFFF" opacity="0.08" mask="url(#mask-2)" x="0" y="186" width="375" height="50"></rect>
        </g>
    </g>
</svg>
